<mxfile host="app.diagrams.net" modified="2023-03-02T11:17:58.640Z" agent="5.0 (Windows NT 10.0; Win64; x64) AppleWebKit/537.36 (KHTML, like Gecko) Chrome/110.0.0.0 Safari/537.36" etag="rqUwjyzlQvxquJgFrgCx" version="20.8.23" type="github">
  <diagram name="Page-1" id="zpTn3r8GMwmLKmJmFnTA">
    <mxGraphModel dx="1304" dy="729" grid="0" gridSize="10" guides="1" tooltips="1" connect="1" arrows="1" fold="1" page="1" pageScale="1" pageWidth="827" pageHeight="1169" math="0" shadow="0">
      <root>
        <mxCell id="0" />
        <mxCell id="1" parent="0" />
        <mxCell id="AgxBdR0-oDlHM96_HyEY-23" value="" style="rounded=1;whiteSpace=wrap;html=1;fontSize=14;dashed=1;" vertex="1" parent="1">
          <mxGeometry x="24" y="463" width="481" height="343" as="geometry" />
        </mxCell>
        <mxCell id="AgxBdR0-oDlHM96_HyEY-7" value="" style="rounded=1;whiteSpace=wrap;html=1;fontSize=24;" vertex="1" parent="1">
          <mxGeometry x="59" y="257" width="172" height="84" as="geometry" />
        </mxCell>
        <mxCell id="AgxBdR0-oDlHM96_HyEY-1" value="&lt;font style=&quot;font-size: 24px;&quot;&gt;&lt;b style=&quot;font-size: 24px;&quot;&gt;Circuit Breaker Implementation&lt;/b&gt;&lt;/font&gt;" style="text;html=1;align=center;verticalAlign=middle;resizable=0;points=[];autosize=1;strokeColor=none;fillColor=none;fontSize=24;" vertex="1" parent="1">
          <mxGeometry x="246" y="29" width="374" height="41" as="geometry" />
        </mxCell>
        <mxCell id="AgxBdR0-oDlHM96_HyEY-2" value="" style="rounded=1;whiteSpace=wrap;html=1;fontSize=24;" vertex="1" parent="1">
          <mxGeometry x="59" y="104" width="172" height="91" as="geometry" />
        </mxCell>
        <mxCell id="AgxBdR0-oDlHM96_HyEY-3" value="&lt;font style=&quot;font-size: 14px;&quot;&gt;Web Client&lt;/font&gt;" style="rounded=0;whiteSpace=wrap;html=1;fontSize=18;fillColor=#d5e8d4;strokeColor=#82b366;" vertex="1" parent="1">
          <mxGeometry x="85" y="119.5" width="120" height="60" as="geometry" />
        </mxCell>
        <mxCell id="AgxBdR0-oDlHM96_HyEY-4" value="&lt;font style=&quot;font-size: 14px;&quot;&gt;Microservice A&lt;/font&gt;" style="rounded=0;whiteSpace=wrap;html=1;fontSize=24;fillColor=#ffe6cc;strokeColor=#d79b00;" vertex="1" parent="1">
          <mxGeometry x="85" y="269" width="120" height="60" as="geometry" />
        </mxCell>
        <mxCell id="AgxBdR0-oDlHM96_HyEY-5" value="&lt;font style=&quot;font-size: 14px;&quot;&gt;Microservice B&lt;/font&gt;" style="rounded=0;whiteSpace=wrap;html=1;fontSize=24;fillColor=#f8cecc;strokeColor=#b85450;" vertex="1" parent="1">
          <mxGeometry x="353" y="195" width="120" height="60" as="geometry" />
        </mxCell>
        <mxCell id="AgxBdR0-oDlHM96_HyEY-6" value="&lt;font style=&quot;font-size: 14px;&quot;&gt;Microservice C&lt;/font&gt;" style="rounded=0;whiteSpace=wrap;html=1;fontSize=24;fillColor=#fff2cc;strokeColor=#d6b656;" vertex="1" parent="1">
          <mxGeometry x="625" y="195" width="120" height="60" as="geometry" />
        </mxCell>
        <mxCell id="AgxBdR0-oDlHM96_HyEY-8" value="&lt;font style=&quot;font-size: 14px;&quot;&gt;External ms&lt;/font&gt;" style="rounded=0;whiteSpace=wrap;html=1;fontSize=24;fillColor=#dae8fc;strokeColor=#6c8ebf;" vertex="1" parent="1">
          <mxGeometry x="625" y="306" width="120" height="60" as="geometry" />
        </mxCell>
        <mxCell id="AgxBdR0-oDlHM96_HyEY-9" value="&lt;span&gt;balances-dashboard-ui&lt;/span&gt;" style="text;html=1;align=center;verticalAlign=middle;resizable=0;points=[];autosize=1;strokeColor=none;fillColor=none;fontSize=14;fontStyle=1" vertex="1" parent="1">
          <mxGeometry x="60" y="191" width="171" height="29" as="geometry" />
        </mxCell>
        <mxCell id="AgxBdR0-oDlHM96_HyEY-10" value="Other microservice" style="text;html=1;align=center;verticalAlign=middle;resizable=0;points=[];autosize=1;strokeColor=none;fillColor=none;fontSize=14;fontStyle=1" vertex="1" parent="1">
          <mxGeometry x="73" y="341" width="146" height="29" as="geometry" />
        </mxCell>
        <mxCell id="AgxBdR0-oDlHM96_HyEY-11" value="" style="endArrow=classic;html=1;rounded=0;fontSize=14;" edge="1" parent="1">
          <mxGeometry width="50" height="50" relative="1" as="geometry">
            <mxPoint x="238" y="148" as="sourcePoint" />
            <mxPoint x="342" y="216" as="targetPoint" />
          </mxGeometry>
        </mxCell>
        <mxCell id="AgxBdR0-oDlHM96_HyEY-12" value="" style="endArrow=classic;html=1;rounded=0;fontSize=14;" edge="1" parent="1">
          <mxGeometry width="50" height="50" relative="1" as="geometry">
            <mxPoint x="238" y="300" as="sourcePoint" />
            <mxPoint x="342" y="232" as="targetPoint" />
          </mxGeometry>
        </mxCell>
        <mxCell id="AgxBdR0-oDlHM96_HyEY-13" value="&lt;span&gt;balances-dashboard-ms&lt;/span&gt;" style="text;html=1;align=center;verticalAlign=middle;resizable=0;points=[];autosize=1;strokeColor=none;fillColor=none;fontSize=14;fontStyle=1" vertex="1" parent="1">
          <mxGeometry x="323.5" y="255" width="179" height="29" as="geometry" />
        </mxCell>
        <mxCell id="AgxBdR0-oDlHM96_HyEY-14" value="&lt;span&gt;tts-endpoint&lt;/span&gt;" style="text;html=1;align=center;verticalAlign=middle;resizable=0;points=[];autosize=1;strokeColor=none;fillColor=none;fontSize=14;fontStyle=1" vertex="1" parent="1">
          <mxGeometry x="635.5" y="249" width="99" height="29" as="geometry" />
        </mxCell>
        <mxCell id="AgxBdR0-oDlHM96_HyEY-15" value="2" style="ellipse;whiteSpace=wrap;html=1;aspect=fixed;fontSize=14;" vertex="1" parent="1">
          <mxGeometry x="289" y="278" width="24" height="24" as="geometry" />
        </mxCell>
        <mxCell id="AgxBdR0-oDlHM96_HyEY-16" value="1" style="ellipse;whiteSpace=wrap;html=1;aspect=fixed;fontSize=14;" vertex="1" parent="1">
          <mxGeometry x="289" y="148" width="24" height="24" as="geometry" />
        </mxCell>
        <mxCell id="AgxBdR0-oDlHM96_HyEY-17" value="" style="endArrow=classic;html=1;rounded=0;fontSize=14;" edge="1" parent="1">
          <mxGeometry width="50" height="50" relative="1" as="geometry">
            <mxPoint x="486" y="227" as="sourcePoint" />
            <mxPoint x="611" y="227" as="targetPoint" />
          </mxGeometry>
        </mxCell>
        <mxCell id="AgxBdR0-oDlHM96_HyEY-18" value="3" style="ellipse;whiteSpace=wrap;html=1;aspect=fixed;fontSize=14;" vertex="1" parent="1">
          <mxGeometry x="401" y="165" width="24" height="24" as="geometry" />
        </mxCell>
        <mxCell id="AgxBdR0-oDlHM96_HyEY-19" value="" style="endArrow=classic;html=1;rounded=0;fontSize=14;" edge="1" parent="1">
          <mxGeometry width="50" height="50" relative="1" as="geometry">
            <mxPoint x="489" y="249" as="sourcePoint" />
            <mxPoint x="611" y="332" as="targetPoint" />
          </mxGeometry>
        </mxCell>
        <mxCell id="AgxBdR0-oDlHM96_HyEY-20" value="&lt;span&gt;other-possible-ms&lt;/span&gt;" style="text;html=1;align=center;verticalAlign=middle;resizable=0;points=[];autosize=1;strokeColor=none;fillColor=none;fontSize=14;fontStyle=1" vertex="1" parent="1">
          <mxGeometry x="615.5" y="363" width="139" height="29" as="geometry" />
        </mxCell>
        <mxCell id="AgxBdR0-oDlHM96_HyEY-21" value="&lt;font style=&quot;font-size: 14px;&quot;&gt;Microservice B&lt;/font&gt;" style="rounded=0;whiteSpace=wrap;html=1;fontSize=24;fillColor=#f8cecc;strokeColor=#b85450;" vertex="1" parent="1">
          <mxGeometry x="37" y="609" width="120" height="60" as="geometry" />
        </mxCell>
        <mxCell id="AgxBdR0-oDlHM96_HyEY-22" value="&lt;font style=&quot;font-size: 14px;&quot;&gt;Microservice C&lt;/font&gt;" style="rounded=0;whiteSpace=wrap;html=1;fontSize=24;fillColor=#fff2cc;strokeColor=#d6b656;" vertex="1" parent="1">
          <mxGeometry x="647" y="609" width="120" height="60" as="geometry" />
        </mxCell>
        <mxCell id="AgxBdR0-oDlHM96_HyEY-25" value="" style="endArrow=classic;html=1;rounded=0;fontSize=14;" edge="1" parent="1">
          <mxGeometry width="50" height="50" relative="1" as="geometry">
            <mxPoint x="510.5" y="618" as="sourcePoint" />
            <mxPoint x="635.5" y="618" as="targetPoint" />
          </mxGeometry>
        </mxCell>
        <mxCell id="AgxBdR0-oDlHM96_HyEY-26" value="" style="endArrow=classic;html=1;rounded=0;fontSize=14;" edge="1" parent="1">
          <mxGeometry width="50" height="50" relative="1" as="geometry">
            <mxPoint x="635.5" y="668.09" as="sourcePoint" />
            <mxPoint x="510.5" y="668.09" as="targetPoint" />
          </mxGeometry>
        </mxCell>
        <mxCell id="AgxBdR0-oDlHM96_HyEY-27" value="Request" style="text;html=1;align=center;verticalAlign=middle;resizable=0;points=[];autosize=1;strokeColor=none;fillColor=none;fontSize=14;" vertex="1" parent="1">
          <mxGeometry x="534" y="587" width="70" height="29" as="geometry" />
        </mxCell>
        <mxCell id="AgxBdR0-oDlHM96_HyEY-28" value="Response" style="text;html=1;align=center;verticalAlign=middle;resizable=0;points=[];autosize=1;strokeColor=none;fillColor=none;fontSize=14;" vertex="1" parent="1">
          <mxGeometry x="529" y="669" width="81" height="29" as="geometry" />
        </mxCell>
        <mxCell id="AgxBdR0-oDlHM96_HyEY-29" value="4" style="ellipse;whiteSpace=wrap;html=1;aspect=fixed;fontSize=14;" vertex="1" parent="1">
          <mxGeometry x="557" y="563" width="24" height="24" as="geometry" />
        </mxCell>
        <mxCell id="AgxBdR0-oDlHM96_HyEY-31" value="4" style="ellipse;whiteSpace=wrap;html=1;aspect=fixed;fontSize=14;" vertex="1" parent="1">
          <mxGeometry x="537" y="191" width="24" height="24" as="geometry" />
        </mxCell>
      </root>
    </mxGraphModel>
  </diagram>
</mxfile>
